<svg width="32" height="30" viewBox="0 0 32 30" fill="none" xmlns="http://www.w3.org/2000/svg">
<g clip-path="url(#clip0_143_2)">
<path d="M16 28.9286C24.2055 28.9286 30.8572 22.6927 30.8572 15C30.8572 7.30748 24.2055 1.07144 16 1.07144C7.79465 1.07144 1.14288 7.30748 1.14288 15C1.14288 22.6927 7.79465 28.9286 16 28.9286Z" stroke="black" stroke-linecap="round" stroke-linejoin="round"/>
<path d="M12 11.2492C12 10.5075 12.2348 9.78253 12.6747 9.16583C13.1147 8.54916 13.74 8.06852 14.4715 7.78468C15.2031 7.50086 16.0081 7.42661 16.7847 7.57129C17.5613 7.71598 18.2747 8.07313 18.8347 8.59759C19.3946 9.12203 19.7759 9.79022 19.9304 10.5176C20.0848 11.2451 20.0056 11.9991 19.7025 12.6843C19.3995 13.3695 18.8863 13.9552 18.2279 14.3672C17.5696 14.7793 16.7955 14.9992 16.0036 14.9992V17.4992" stroke="black" stroke-linecap="round" stroke-linejoin="round"/>
<path d="M16 22.4111C15.6844 22.4111 15.4286 22.1713 15.4286 21.8754C15.4286 21.5794 15.6844 21.3397 16 21.3397" stroke="black" stroke-linecap="round" stroke-linejoin="round"/>
<path d="M16 22.4111C16.3156 22.4111 16.5714 22.1713 16.5714 21.8754C16.5714 21.5794 16.3156 21.3397 16 21.3397" stroke="black" stroke-linecap="round" stroke-linejoin="round"/>
</g>
<defs>
<clipPath id="clip0_143_2">
<rect width="32" height="30" fill="white"/>
</clipPath>
</defs>
</svg>
